<?xml version="1.0" standalone="no"?><!DOCTYPE svg PUBLIC "-//W3C//DTD SVG 1.1//EN" "http://www.w3.org/Graphics/SVG/1.1/DTD/svg11.dtd"><svg t="1578275662705" class="icon" viewBox="0 0 1024 1024" version="1.1" xmlns="http://www.w3.org/2000/svg" p-id="15178" xmlns:xlink="http://www.w3.org/1999/xlink" width="200" height="200"><defs><style type="text/css"></style></defs><path d="M928 222v622.8a83.19 83.19 0 0 1-83.2 83.2H222A126 126 0 0 1 96 802V222A125.93 125.93 0 0 1 222 96h580a126 126 0 0 1 126 126z" fill="#FF6161" p-id="15179"></path><path d="M731.1 928H222A126 126 0 0 1 96 802V370q12.42-0.5 25-0.5 15.06 0 29.93 0.72C445.31 384.42 685.22 606.47 727 892.83q2.55 17.43 4.1 35.17z" fill="#FFFFFF" opacity=".2" p-id="15180"></path><path d="M928 222v622.8a82.87 82.87 0 0 1-6.69 32.74A635.16 635.16 0 0 1 774.7 894.6q-24.06 0-47.69-1.77c-291-21.67-527.21-240-576.13-522.58a638.8 638.8 0 0 1 8.24-257.47A125.48 125.48 0 0 1 222 96h580a126 126 0 0 1 126 126z" fill="#FFFFFF" opacity=".14" p-id="15181"></path><path d="M373.06 602.56c24 2.16 84.71 8.12 113 15.53A11.06 11.06 0 0 0 500 607.41V372a11.06 11.06 0 0 0-6.74-10.17l-114.9-48.63A11 11 0 0 0 363 323.37v268.18a11 11 0 0 0 10.06 11.01z" fill="#FFFFFF" p-id="15182"></path><path d="M715 366.69a24 24 0 0 0-24 24v240c-40.75-2-119-0.66-179 32.61-59.95-33.3-138.25-34.71-179-32.66V390.69a24 24 0 0 0-48 0v266a24 24 0 0 0 27.14 23.8c1.12-0.15 113.11-14.23 181.63 27.67a24 24 0 0 0 12.52 3.53h11.42a24 24 0 0 0 12.52-3.53c68.52-41.9 180.51-27.82 181.61-27.68A24 24 0 0 0 739 656.69v-266a24 24 0 0 0-24-24z" fill="#FFFFFF" p-id="15183"></path><path d="M534.9 618.09c28.33-7.41 89-13.37 113-15.53a11 11 0 0 0 10.06-11V323.37a11 11 0 0 0-15.36-10.17l-114.9 48.64A11.06 11.06 0 0 0 521 372v235.4a11.06 11.06 0 0 0 13.9 10.69z" fill="#FFFFFF" p-id="15184"></path></svg>