<?xml version="1.0" standalone="no"?><!DOCTYPE svg PUBLIC "-//W3C//DTD SVG 1.1//EN" "http://www.w3.org/Graphics/SVG/1.1/DTD/svg11.dtd"><svg t="1576638272922" class="icon" viewBox="0 0 1024 1024" version="1.1" xmlns="http://www.w3.org/2000/svg" p-id="1123" xmlns:xlink="http://www.w3.org/1999/xlink" width="200" height="200"><defs><style type="text/css"></style></defs><path d="M653.2 585.5c2.9-4.4 4.4-9.6 4.4-14.9 0-7.9-2.8-14.3-8.6-19.3-5.6-5.1-14.7-7.6-27-7.6h-52.5v55h47.2c10.1 0 17.9-1.1 23.6-3.2 5.6-2.2 9.9-5.5 12.9-10z" fill="#1296db" p-id="1124"></path><path d="M836.4 83.4H187.6c-57.3 0-104.1 46.9-104.1 104.1v648.9c0 57.3 46.9 104.1 104.1 104.1h648.9c57.3 0 104.1-46.9 104.1-104.1V187.6c0-57.3-46.9-104.2-104.2-104.2zM495.2 680c-12.1 9.5-26.6 14.2-44 14.2-17.9 0-32.4-3.6-43.7-10.9-11.2-7.3-19.7-17.9-25.6-31.7-5.8-13.8-8.8-28.6-8.8-44.5 0-17.3 3.3-32.3 9.9-45.2 6.6-12.8 16-22.7 28.2-29.3 12.2-6.7 25.6-10.1 40.3-10.1 16.6 0 30.6 4.3 41.9 12.7 11.4 8.5 19.3 20.4 23.7 35.7l-21.6 5.1c-3.9-12.1-9.5-20.8-16.8-26.4-7.3-5.5-16.5-8.3-27.6-8.3-12.8 0-23.4 3-32 9.2-8.6 6.1-14.6 14.3-18 24.7-3.5 10.3-5.3 20.9-5.3 31.9 0 14.1 2.1 26.4 6.2 37 4.1 10.6 10.5 18.4 19.2 23.7 8.5 5.1 18.3 7.8 28.2 7.8 12.3 0 22.7-3.5 31.2-10.7 8.6-7 14.3-17.6 17.4-31.6l22 5.6c-4.6 17.8-12.8 31.5-24.8 41.1z m0.6-229.9c-19-32.3-54-54-94.2-54-29 0-56.8 11.6-77.3 32.1s-32.1 48.4-32.1 77.4c0 5.3 0.4 10.5 1.2 15.7-0.4 0-0.8-0.1-1.2-0.1-60.4 0-109.4 49-109.4 109.4 0 60.4 49 109.4 109.4 109.4h175.9v31.3H292.2c-77.7 0-140.7-63-140.7-140.7 0-67.2 47.1-123.3 110-137.2 6.2-72 66.4-128.5 140-128.5 27.2 0 53.8 7.9 76.6 22.8 28-68.4 95.1-116.6 173.6-116.6 103.6 0 187.6 84 187.6 187.6 0 9.3-1 18.5-2.3 27.4h-31.5c1.6-9.1 2.6-18.2 2.6-27.4 0-86.3-70-156.4-156.3-156.4-83.6 0-151.5 65.5-156 147.8z m170.4 241.3l-22-34.6c-6.5-10-11.7-17.6-15.9-22.9-4.2-5.3-7.9-9-11.2-11.1-3.1-2-6.5-3.5-10-4.4-2.5-0.6-6.5-0.8-12.2-0.8h-25.5v73.7h-22v-166H621c14.9 0 26.1 1.5 33.8 4.5 7.7 3 13.9 8.3 18.5 15.8 4.6 7.6 6.9 15.9 6.9 25 0 11.8-3.8 21.7-11.4 29.8-7.6 8.1-19.4 13.2-35.3 15.4 5.8 2.8 10.2 5.6 13.3 8.3 6.4 5.8 12.5 13.2 18.3 22.1l28.9 45.2h-27.8z m206.3 0h-21.1V552.3l-48.3 139.1h-19.8l-48-141.4v141.4H714V525.3h33.1l39.3 117.6c2.8 8.2 5.4 16.4 7.9 24.7 2.8-8.9 5.8-17.8 8.9-26.6l39.7-115.6h29.6v166z" fill="#1296db" p-id="1125"></path></svg>