<?xml version="1.0" standalone="no"?><!DOCTYPE svg PUBLIC "-//W3C//DTD SVG 1.1//EN" "http://www.w3.org/Graphics/SVG/1.1/DTD/svg11.dtd"><svg t="1578461165214" class="icon" viewBox="0 0 1024 1024" version="1.1" xmlns="http://www.w3.org/2000/svg" p-id="17701" xmlns:xlink="http://www.w3.org/1999/xlink" width="200" height="200"><defs><style type="text/css"></style></defs><path d="M0 0m113.777778 0l796.444444 0q113.777778 0 113.777778 113.777778l0 796.444444q0 113.777778-113.777778 113.777778l-796.444444 0q-113.777778 0-113.777778-113.777778l0-796.444444q0-113.777778 113.777778-113.777778Z" fill="#FFB131" p-id="17702"></path><path d="M521.614222 218.225778a14.222222 14.222222 0 1 0-28.444444 0v156.643555a25.6 25.6 0 0 1-28.444445 28.444445 25.998222 25.998222 0 0 1-28.444444-28.444445v-163.669333l-28.444445-7.111111-28.444444 7.111111v163.754667a25.6 25.6 0 0 1-28.444444 28.444444 25.998222 25.998222 0 0 1-28.444445-28.444444v-156.728889a14.222222 14.222222 0 1 0-28.444444 0v14.222222a1386.865778 1386.865778 0 0 0-28.444445 199.310222c0 22.897778 37.774222 69.091556 105.386667 82.005334l-19.313778 250.936888a56.888889 56.888889 0 1 0 112.554667 0l-19.313778-250.965333c66.616889-12.8 105.415111-57.969778 105.415111-81.976889a1418.581333 1418.581333 0 0 0-28.444444-199.310222v-14.222222z m256.227556 242.062222a352.512 352.512 0 0 0-89.429334-242.460444 28.444444 28.444444 0 0 0-52.906666 14.648888v541.127112h2.446222a42.666667 42.666667 0 1 0 80.554667 0h2.446222v-142.392889s56.888889-5.034667 56.888889-56.888889v-113.777778z m0 0" fill="#FFFFFF" p-id="17703"></path></svg>